<svg xmlns="http://www.w3.org/2000/svg" viewBox="0 0 500 300" xmlns:v="https://vecta.io/nano"><defs><clipPath id="A"><path d="M0 0h500v300H0z" fill="none"/></clipPath></defs><g clip-path="url(#A)"><g clip-path="url(#A)"><path d="M294.4 178.67a51.11 51.11 0 0 1-6.1 6.77l-1.24-1.73-2.68-3.75a39.75 39.75 0 0 0-6-7 20.21 20.21 0 0 0-4.11-2.87 22.73 22.73 0 0 0-11.82-2.3 1 1 0 0 1-.25 0 21.7 21.7 0 0 1 11.57-1.39 17.88 17.88 0 0 1 4.64 1.41 38.37 38.37 0 0 1 7.6 4.68l3.55 2.66 4.81 3.56" fill="#fcc467"/><path d="M288.3 185.44A49.62 49.62 0 0 1 261 198.2a47.36 47.36 0 0 1-6.32.42 49.61 49.61 0 0 1-48.63-40 3.87 3.87 0 0 1 3.82-4.59h22.28a3.89 3.89 0 0 1 3.59 2.48 20.24 20.24 0 0 0 26.42 11.25h0a.7.7 0 0 0 .25 0 22.84 22.84 0 0 1 11.82 2.31 20.21 20.21 0 0 1 4.11 2.87 39.75 39.75 0 0 1 6 7l2.68 3.74 1.24 1.74" fill="#f39006"/><path d="M294 121.33a50.43 50.43 0 0 0-6.1-6.77l-1.24 1.73-2.67 3.75a40.23 40.23 0 0 1-6 7 19.67 19.67 0 0 1-4.11 2.87 22.71 22.71 0 0 1-11.82 2.3 1 1 0 0 0-.25 0 21.7 21.7 0 0 0 11.57 1.39 17.88 17.88 0 0 0 4.64-1.41 38.73 38.73 0 0 0 7.61-4.68l3.54-2.66 4.81-3.56" fill="#fcc467"/><path d="M287.88 114.56a49.62 49.62 0 0 0-27.26-12.76 47.36 47.36 0 0 0-6.32-.42 49.6 49.6 0 0 0-48.62 40 3.87 3.87 0 0 0 3.81 4.59h22.28a3.91 3.91 0 0 0 3.6-2.48 20.24 20.24 0 0 1 26.42-11.25h0a.7.7 0 0 1 .25 0 22.82 22.82 0 0 0 11.84-2.24 19.67 19.67 0 0 0 4.11-2.87 40.23 40.23 0 0 0 6-7l3.91-5.48" fill="#f39006"/></g></g></svg>