<svg xmlns="http://www.w3.org/2000/svg" viewBox="0 0 250 150" xmlns:v="https://vecta.io/nano"><defs><clipPath id="A"><path d="M0 0h250v150H0z" fill="none"/></clipPath></defs><g clip-path="url(#A)"><g clip-path="url(#A)"><path d="M147.2,89.34a26.53,26.53,0,0,1-3,3.38l-.62-.87L142.19,90a20.06,20.06,0,0,0-3-3.52A10.16,10.16,0,0,0,137.15,85a11.4,11.4,0,0,0-5.91-1.15h-.13a10.93,10.93,0,0,1,5.79-.69,9.25,9.25,0,0,1,2.32.7,19.09,19.09,0,0,1,3.8,2.35l1.77,1.32,2.41,1.79" fill="#fcc467"/><path d="M144.15 92.72a24.86 24.86 0 0 1-13.63 6.38 23.62 23.62 0 0 1-3.16.21 24.8 24.8 0 0 1-24.31-20A1.93 1.93 0 0 1 105 77h11.1a1.93 1.93 0 0 1 1.79 1.24 10.12 10.12 0 0 0 9.39 6.37 10 10 0 0 0 3.82-.75h.14a11.4 11.4 0 0 1 5.91 1.14 10.16 10.16 0 0 1 2.06 1.44 20.06 20.06 0 0 1 3 3.52l1.34 1.87.62.87" fill="#f39006"/><path d="M147 60.66a26.53 26.53 0 0 0-3.05-3.38l-.62.87-1.34 1.87a20.06 20.06 0 0 1-3 3.52 10.16 10.16 0 0 1-2.05 1.46 11.4 11.4 0 0 1-5.94 1.13h-.12a10.89 10.89 0 0 0 5.78.69 9.12 9.12 0 0 0 2.32-.7 19.09 19.09 0 0 0 3.8-2.35l1.78-1.32 2.4-1.79" fill="#fcc467"/><path d="M143.94 57.28a24.86 24.86 0 0 0-13.63-6.38 23.62 23.62 0 0 0-3.16-.21 24.81 24.81 0 0 0-24.31 20 1.93 1.93 0 0 0 1.91 2.31h11.14a1.92 1.92 0 0 0 1.79-1.24 10.13 10.13 0 0 1 9.4-6.37 10 10 0 0 1 3.81.75h.11a11.4 11.4 0 0 0 5.94-1.14 10.16 10.16 0 0 0 2.06-1.46 20.06 20.06 0 0 0 3-3.54l1.34-1.87.62-.87" fill="#f39006"/></g></g></svg>