<svg xmlns="http://www.w3.org/2000/svg" viewBox="0 0 2000 1200" xmlns:v="https://vecta.io/nano"><defs><clipPath id="A"><path d="M0 0h2000v1200H0z" fill="none"/></clipPath></defs><g clip-path="url(#A)"><g clip-path="url(#A)"><path d="M1177.59 714.7a205.47 205.47 0 0 1-24.39 27.06l-5-6.94-10.7-15c-7.14-10.21-14.58-19.82-23.89-28.15a79.08 79.08 0 0 0-16.46-11.5 90.81 90.81 0 0 0-47.25-9.17 3.29 3.29 0 0 1-1 0 87 87 0 0 1 46.3-5.55 72.5 72.5 0 0 1 18.53 5.65c11.11 4.86 20.72 11.5 30.44 18.74l14.17 10.6 19.24 14.28" fill="#fcc467"/><path d="M1153.2 741.76a198.47 198.47 0 0 1-109 51 194.41 194.41 0 0 1-25.27 1.69c-96.26 0-176.76-69-194.5-160.1a15.46 15.46 0 0 1 15.26-18.34h89.12a15.57 15.57 0 0 1 14.33 9.99 81 81 0 0 0 105.68 45h.09a3.29 3.29 0 0 0 1 0 90.81 90.81 0 0 1 47.29 9.22 79.08 79.08 0 0 1 16.46 11.5c9.32 8.33 16.75 17.94 23.89 28.15l10.7 15 5 6.94" fill="#f39006"/><path d="M1175.92 485.3a205.47 205.47 0 0 0-24.39-27.06l-5 6.94-10.7 15c-7.14 10.21-14.58 19.82-23.89 28.15a79.08 79.08 0 0 1-16.46 11.5 90.81 90.81 0 0 1-47.29 9.22 3.29 3.29 0 0 0-1 0 87 87 0 0 0 46.3 5.55 72.5 72.5 0 0 0 18.53-5.65c11.11-4.86 20.72-11.5 30.44-18.74l14.18-10.6 19.23-14.28" fill="#fcc467"/><path d="M1151.53 458.24a198.47 198.47 0 0 0-109-51.05 194.41 194.41 0 0 0-25.27-1.69c-96.26 0-176.76 69-194.5 160.1A15.46 15.46 0 0 0 838 583.94h89.12a15.57 15.57 0 0 0 14.35-9.94 81 81 0 0 1 105.68-45h.09a3.35 3.35 0 0 1 1 0 90.79 90.79 0 0 0 47.28-9.22A79.08 79.08 0 0 0 1112 508.3c9.32-8.33 16.75-17.94 23.89-28.15l10.7-15 5-6.94" fill="#f39006"/></g></g></svg>