<svg xmlns="http://www.w3.org/2000/svg" viewBox="0 0 4000 2400" xmlns:v="https://vecta.io/nano"><defs><clipPath id="A"><path d="M0 0h4000v2400H0z" fill="none"/></clipPath></defs><g clip-path="url(#A)"><g clip-path="url(#A)"><path d="M2355.18 1429.39a409.06 409.06 0 0 1-48.78 54.13l-9.92-13.88-21.4-29.94c-14.28-20.41-29.15-39.65-47.79-56.3a157.83 157.83 0 0 0-32.91-23 181.71 181.71 0 0 0-94.58-18.4 6.91 6.91 0 0 1-2 0 174.07 174.07 0 0 1 92.6-11.11 146.52 146.52 0 0 1 37.07 11.3c22.21 9.72 41.44 23 60.87 37.48l28.35 21.21 38.47 28.55" fill="#fcc467"/><path d="M2306.4 1483.52a397.05 397.05 0 0 1-218.09 102.11 389.25 389.25 0 0 1-50.56 3.37c-192.52 0-353.51-138-389-320.2-3.77-19 11.1-36.68 30.54-36.68h178.23a31.12 31.12 0 0 1 28.75 19.82 162 162 0 0 0 211.36 90h.19a6.64 6.64 0 0 0 2 0 181.7 181.7 0 0 1 94.57 18.44 157.83 157.83 0 0 1 32.91 23c18.64 16.65 33.51 35.88 47.78 56.3l21.41 29.94c3.38 4.56 6.55 9.13 9.92 13.88" fill="#f39006"/><path d="M2351.84 970.61a409.06 409.06 0 0 0-48.78-54.13l-9.92 13.88-21.4 29.94c-14.28 20.41-29.15 39.65-47.78 56.3a158.15 158.15 0 0 1-32.92 23 181.7 181.7 0 0 1-94.57 18.44 6.91 6.91 0 0 0-2 0 174 174 0 0 0 92.59 11.11 146.39 146.39 0 0 0 37.07-11.3c22.21-9.72 41.44-23 60.87-37.48l28.35-21.21 38.47-28.55" fill="#fcc467"/><path d="M2303.06 916.48A397.05 397.05 0 0 0 2085 814.37a389.25 389.25 0 0 0-50.56-3.37c-192.52 0-353.51 138-389 320.2-3.77 19 11.1 36.68 30.54 36.68h178.24a31.12 31.12 0 0 0 28.74-19.82 162 162 0 0 1 211.36-90h.2a6.57 6.57 0 0 1 2 0 181.7 181.7 0 0 0 94.48-18.46 158.15 158.15 0 0 0 32.92-23c18.63-16.65 33.5-35.88 47.77-56.3l21.41-29.94c3.38-4.56 6.55-9.13 9.92-13.88" fill="#f39006"/></g></g></svg>